<?xml version="1.0" encoding="UTF-8" standalone="no"?>
<svg
   viewBox="0 -960 640 40"
   width="32"
   version="1.1"
   id="svg1"
   height="40"
   xmlns="http://www.w3.org/2000/svg"
   xmlns:svg="http://www.w3.org/2000/svg">
  <defs
     id="defs1" />
  <path
     d="M 80,-540 Q 47,-540 23.5,-563.5 0,-587 0,-620 v -480 q 0,-33 23.5,-56.5 Q 47,-1180 80,-1180 h 80 q 0,-66 47,-113 47,-47 113,-47 66,0 113,47 47,47 47,113 h 80 q 33,0 56.5,23.5 23.5,23.5 23.5,56.5 v 480 q 0,33 -23.5,56.5 Q 593,-540 560,-540 Z m 0,-80 h 480 v -480 h -80 v 80 q 0,17 -11.5,28.5 Q 457,-980 440,-980 423,-980 411.5,-991.5 400,-1003 400,-1020 v -80 H 240 v 80 q 0,17 -11.5,28.5 Q 217,-980 200,-980 183,-980 171.5,-991.5 160,-1003 160,-1020 v -80 H 80 Z m 160,-560 h 160 q 0,-33 -23.5,-56.5 -23.5,-23.5 -56.5,-23.5 -33,0 -56.5,23.5 Q 240,-1213 240,-1180 Z M 80,-620 v -480 z"
     id="path1"
     style="fill:#f5f5f5;fill-opacity:0.8" />
</svg>
